<?xml version="1.0" encoding="utf-8"?>
<!-- Generator: Adobe Illustrator 24.0.1, SVG Export Plug-In . SVG Version: 6.00 Build 0)  -->
<svg version="1.1" id="Layer_1" xmlns="http://www.w3.org/2000/svg" xmlns:xlink="http://www.w3.org/1999/xlink" x="0px" y="0px"
	 viewBox="0 0 500 500" style="enable-background:new 0 0 500 500;" xml:space="preserve">
<path d="M357.4524841,235.9065552c-1.9023438-4.6430664-2.7431641-9.597168-2.4316406-14.3266602
	c1.5634766-23.6875-3.3476563-58.394043-10.5097656-74.2724609c-1.2441406-2.7568359-3.6240234-4.8466797-6.5292969-5.7338867
	c-2.9091797-0.8881836-6.0585938-0.484375-8.6376953,1.112793c-11.9140625,7.3759766-27.8896484,23.7207031-36.3505859,32.8066406
	c-1.1494141,1.2338867-2.8916016,1.6313477-4.4345703,1.012207c-7.0693359-2.8305664-19.4960938-6.2050781-38.558609-6.2050781
	s-31.4907227,3.3745117-38.5600586,6.2055664c-1.5419922,0.6196289-3.2836914,0.2216797-4.4331055-1.012207
	c-8.4628906-9.0869141-24.4384766-25.4316406-36.3525391-32.8076172c-2.578125-1.5957031-5.7255859-2-8.6367188-1.1123047
	c-2.9057617,0.887207-5.2856445,2.9775391-6.5292969,5.734375c-7.1616211,15.8779297-12.0727539,50.5844727-10.5102539,74.2719727
	c0.3125,4.7294922-0.5283203,9.6835938-2.4311523,14.3271484c-9.0126953,21.9941406-12.2451172,55.0322266,5.7124023,81.7978516
	c12.6049805,18.7880859,40.4882813,41.1835938,101.7407227,41.1835938c61.2519684,0,89.1347809-22.3955078,101.7392731-41.1826172
	C369.6976013,290.9402466,366.466156,257.9011841,357.4524841,235.9065552z"/>
</svg>
